<svg width="473" height="357" viewBox="0 0 473 357" fill="none" xmlns="http://www.w3.org/2000/svg">
<g filter="url(#filter0_d_2292_2813)">
<rect x="49" width="374" height="254" rx="12" fill="white"/>
<rect x="49.5" y="0.5" width="373" height="253" rx="11.5" stroke="#E1E4EA"/>
<rect x="64" y="12" width="59" height="19" rx="9.5" fill="#F2F5F8"/>
<rect x="159" y="12" width="59" height="19" rx="9.5" fill="#F2F5F8"/>
<rect x="254" y="12" width="59" height="19" rx="9.5" fill="#F2F5F8"/>
<rect x="349" y="12" width="59" height="19" rx="9.5" fill="#F2F5F8"/>
<rect x="49.5" y="42.5" width="373" height="211" rx="6.5" stroke="#E1E4EA"/>
<rect x="64" y="63" width="59" height="19" rx="9.5" fill="#F2F5F8"/>
<rect x="159" y="63" width="59" height="19" rx="9.5" fill="#F2F5F8"/>
<rect x="254" y="63" width="59" height="19" rx="9.5" fill="#F2F5F8"/>
<rect x="349" y="63" width="59" height="19" rx="9.5" fill="#F2F5F8"/>
<rect x="64" y="101" width="59" height="19" rx="9.5" fill="#F2F5F8"/>
<rect x="159" y="101" width="59" height="19" rx="9.5" fill="#F2F5F8"/>
<rect x="254" y="101" width="59" height="19" rx="9.5" fill="#F2F5F8"/>
<rect x="349" y="101" width="59" height="19" rx="9.5" fill="#F2F5F8"/>
<rect x="64" y="139" width="59" height="19" rx="9.5" fill="#F2F5F8"/>
<rect x="159" y="139" width="59" height="19" rx="9.5" fill="#F2F5F8"/>
<rect x="254" y="139" width="59" height="19" rx="9.5" fill="#F2F5F8"/>
<rect x="349" y="139" width="59" height="19" rx="9.5" fill="#F2F5F8"/>
<rect x="64" y="177" width="59" height="19" rx="9.5" fill="#F2F5F8"/>
<rect x="159" y="177" width="59" height="19" rx="9.5" fill="#F2F5F8"/>
<rect x="254" y="177" width="59" height="19" rx="9.5" fill="#F2F5F8"/>
<rect x="349" y="177" width="59" height="19" rx="9.5" fill="#F2F5F8"/>
<rect x="64" y="215" width="59" height="19" rx="9.5" fill="#F2F5F8"/>
<rect x="159" y="215" width="59" height="19" rx="9.5" fill="#F2F5F8"/>
<rect x="254" y="215" width="59" height="19" rx="9.5" fill="#F2F5F8"/>
<rect x="349" y="215" width="59" height="19" rx="9.5" fill="#F2F5F8"/>
</g>
<rect y="34" width="473" height="323" fill="url(#paint0_linear_2292_2813)"/>
<defs>
<filter id="filter0_d_2292_2813" x="23" y="0" width="426" height="309" filterUnits="userSpaceOnUse" color-interpolation-filters="sRGB">
<feFlood flood-opacity="0" result="BackgroundImageFix"/>
<feColorMatrix in="SourceAlpha" type="matrix" values="0 0 0 0 0 0 0 0 0 0 0 0 0 0 0 0 0 0 127 0" result="hardAlpha"/>
<feOffset dy="29"/>
<feGaussianBlur stdDeviation="13"/>
<feComposite in2="hardAlpha" operator="out"/>
<feColorMatrix type="matrix" values="0 0 0 0 0.133333 0 0 0 0 0.145098 0 0 0 0 0.188235 0 0 0 0.15 0"/>
<feBlend mode="normal" in2="BackgroundImageFix" result="effect1_dropShadow_2292_2813"/>
<feBlend mode="normal" in="SourceGraphic" in2="effect1_dropShadow_2292_2813" result="shape"/>
</filter>
<linearGradient id="paint0_linear_2292_2813" x1="236.5" y1="69.6906" x2="236.5" y2="238.329" gradientUnits="userSpaceOnUse">
<stop stop-color="white" stop-opacity="0"/>
<stop offset="1" stop-color="white"/>
</linearGradient>
</defs>
</svg>
