<svg width="160" height="160" viewBox="0 0 160 160" fill="none" xmlns="http://www.w3.org/2000/svg">
<path d="M0 79.9983C0 35.8165 35.8165 0 79.9983 0C124.18 0 159.997 35.8165 159.997 79.9983C159.997 124.18 124.18 159.997 79.9983 159.997C35.8165 159.997 0 124.18 0 79.9983Z" fill="url(#paint0_linear_984_2499)" fill-opacity="0.1"/>
<g filter="url(#filter0_d_984_2499)">
<path d="M26.667 79.9987C26.667 50.5444 50.5444 26.667 79.9987 26.667C109.453 26.667 133.33 50.5444 133.33 79.9987C133.33 109.453 109.453 133.33 79.9987 133.33C50.5444 133.33 26.667 109.453 26.667 79.9987Z" fill="white"/>
<path d="M79.999 27.5C108.993 27.5002 132.497 51.0051 132.497 79.999C132.497 108.993 108.993 132.497 79.999 132.497C51.0051 132.497 27.5002 108.993 27.5 79.999C27.5 51.005 51.005 27.5 79.999 27.5Z" stroke="#E1E4EA" stroke-width="1.66667"/>
<path d="M79.9993 58.334C75.7143 58.334 71.5255 59.6046 67.9627 61.9852C64.3999 64.3659 61.623 67.7495 59.9832 71.7083C58.3434 75.6672 57.9143 80.0233 58.7503 84.226C59.5862 88.4287 61.6497 92.289 64.6796 95.319C67.7096 98.3489 71.57 100.412 75.7726 101.248C79.9753 102.084 84.3314 101.655 88.2903 100.015C92.2491 98.3756 95.6327 95.5987 98.0134 92.0359C100.394 88.4731 101.665 84.2843 101.665 79.9993C101.659 74.2552 99.374 68.748 95.3123 64.6863C91.2506 60.6246 85.7434 58.3401 79.9993 58.334ZM89.5112 76.1787L77.8453 87.8446C77.6905 87.9996 77.5067 88.1225 77.3044 88.2064C77.1021 88.2903 76.8852 88.3334 76.6662 88.3334C76.4472 88.3334 76.2303 88.2903 76.028 88.2064C75.8257 88.1225 75.6419 87.9996 75.4871 87.8446L70.4874 82.845C70.1747 82.5322 69.999 82.1081 69.999 81.6659C69.999 81.2236 70.1747 80.7995 70.4874 80.4868C70.8001 80.1741 71.2242 79.9984 71.6665 79.9984C72.1087 79.9984 72.5329 80.1741 72.8456 80.4868L76.6662 84.3094L87.153 73.8205C87.3079 73.6657 87.4917 73.5428 87.694 73.4591C87.8963 73.3753 88.1131 73.3321 88.3321 73.3321C88.5511 73.3321 88.7679 73.3753 88.9702 73.4591C89.1725 73.5428 89.3564 73.6657 89.5112 73.8205C89.6661 73.9754 89.7889 74.1592 89.8727 74.3615C89.9565 74.5638 89.9996 74.7806 89.9996 74.9996C89.9996 75.2186 89.9565 75.4354 89.8727 75.6377C89.7889 75.84 89.6661 76.0239 89.5112 76.1787Z" fill="#222530"/>
</g>
<defs>
<filter id="filter0_d_984_2499" x="23.3337" y="25.0003" width="113.33" height="113.33" filterUnits="userSpaceOnUse" color-interpolation-filters="sRGB">
<feFlood flood-opacity="0" result="BackgroundImageFix"/>
<feColorMatrix in="SourceAlpha" type="matrix" values="0 0 0 0 0 0 0 0 0 0 0 0 0 0 0 0 0 0 127 0" result="hardAlpha"/>
<feOffset dy="1.66667"/>
<feGaussianBlur stdDeviation="1.66667"/>
<feComposite in2="hardAlpha" operator="out"/>
<feColorMatrix type="matrix" values="0 0 0 0 0.0392157 0 0 0 0 0.0509804 0 0 0 0 0.0784314 0 0 0 0.03 0"/>
<feBlend mode="normal" in2="BackgroundImageFix" result="effect1_dropShadow_984_2499"/>
<feBlend mode="normal" in="SourceGraphic" in2="effect1_dropShadow_984_2499" result="shape"/>
</filter>
<linearGradient id="paint0_linear_984_2499" x1="79.9983" y1="0" x2="79.9983" y2="159.997" gradientUnits="userSpaceOnUse">
<stop stop-color="#717784"/>
<stop offset="1" stop-color="#717784" stop-opacity="0"/>
</linearGradient>
</defs>
</svg>
