<svg width="160" height="160" viewBox="0 0 160 160" fill="none" xmlns="http://www.w3.org/2000/svg">
<path d="M0 80C0 35.8172 35.8172 0 80 0C124.183 0 160 35.8172 160 80C160 124.183 124.183 160 80 160C35.8172 160 0 124.183 0 80Z" fill="url(#paint0_linear_647_3464)" fill-opacity="0.1"/>
<g filter="url(#filter0_d_647_3464)">
<path d="M26.6665 80.0003C26.6665 50.5451 50.5446 26.667 79.9998 26.667C109.455 26.667 133.333 50.5451 133.333 80.0003C133.333 109.456 109.455 133.334 79.9998 133.334C50.5446 133.334 26.6665 109.456 26.6665 80.0003Z" fill="white"/>
<path d="M79.9995 27.5C108.994 27.5 132.499 51.0052 132.5 80C132.5 108.995 108.994 132.5 79.9995 132.5C51.0047 132.5 27.4995 108.995 27.4995 80C27.4997 51.0053 51.0048 27.5002 79.9995 27.5Z" stroke="#E1E4EA" stroke-width="1.66667"/>
<path d="M96.6657 61.667H63.3324C62.4483 61.667 61.6005 62.0182 60.9753 62.6433C60.3502 63.2684 59.999 64.1163 59.999 65.0003V76.667C59.999 87.6503 65.3157 94.3066 69.7761 97.9566C74.5803 101.886 79.3594 103.219 79.5678 103.275C79.8542 103.353 80.1563 103.353 80.4428 103.275C80.6511 103.219 85.424 101.886 90.2344 97.9566C94.6824 94.3066 99.999 87.6503 99.999 76.667V65.0003C99.999 64.1163 99.6478 63.2684 99.0227 62.6433C98.3976 62.0182 97.5497 61.667 96.6657 61.667ZM89.5157 76.1795L77.849 87.8462C77.6942 88.0011 77.5104 88.1241 77.3081 88.2079C77.1058 88.2918 76.8889 88.335 76.6699 88.335C76.4508 88.335 76.234 88.2918 76.0316 88.2079C75.8293 88.1241 75.6455 88.0011 75.4907 87.8462L70.4907 82.8462C70.178 82.5334 70.0023 82.1093 70.0023 81.667C70.0023 81.2247 70.178 80.8006 70.4907 80.4878C70.8034 80.1751 71.2276 79.9994 71.6699 79.9994C72.1121 79.9994 72.5363 80.1751 72.849 80.4878L76.6657 84.3107L87.1532 73.8212C87.308 73.6663 87.4919 73.5435 87.6942 73.4597C87.8965 73.3759 88.1134 73.3327 88.3324 73.3327C88.5513 73.3327 88.7682 73.3759 88.9705 73.4597C89.1728 73.5435 89.3567 73.6663 89.5115 73.8212C89.6664 73.976 89.7892 74.1598 89.873 74.3622C89.9568 74.5645 90 74.7813 90 75.0003C90 75.2193 89.9568 75.4362 89.873 75.6385C89.7892 75.8408 89.6664 76.0246 89.5115 76.1795H89.5157Z" fill="#222530"/>
</g>
<defs>
<filter id="filter0_d_647_3464" x="23.3332" y="25.0003" width="113.333" height="113.334" filterUnits="userSpaceOnUse" color-interpolation-filters="sRGB">
<feFlood flood-opacity="0" result="BackgroundImageFix"/>
<feColorMatrix in="SourceAlpha" type="matrix" values="0 0 0 0 0 0 0 0 0 0 0 0 0 0 0 0 0 0 127 0" result="hardAlpha"/>
<feOffset dy="1.66667"/>
<feGaussianBlur stdDeviation="1.66667"/>
<feComposite in2="hardAlpha" operator="out"/>
<feColorMatrix type="matrix" values="0 0 0 0 0.0392157 0 0 0 0 0.0509804 0 0 0 0 0.0784314 0 0 0 0.03 0"/>
<feBlend mode="normal" in2="BackgroundImageFix" result="effect1_dropShadow_647_3464"/>
<feBlend mode="normal" in="SourceGraphic" in2="effect1_dropShadow_647_3464" result="shape"/>
</filter>
<linearGradient id="paint0_linear_647_3464" x1="80" y1="0" x2="80" y2="160" gradientUnits="userSpaceOnUse">
<stop stop-color="#717784"/>
<stop offset="1" stop-color="#717784" stop-opacity="0"/>
</linearGradient>
</defs>
</svg>
