<svg width="40" height="40" viewBox="0 0 40 40" fill="none" xmlns="http://www.w3.org/2000/svg">
<path d="M10 0.75H20.5146C21.907 0.75 23.242 1.30354 24.2266 2.28809L33.7119 11.7734C34.6965 12.758 35.25 14.093 35.25 15.4854V34C35.25 36.8995 32.8995 39.25 30 39.25H10C7.10051 39.25 4.75 36.8995 4.75 34V6C4.75 3.10051 7.10051 0.75 10 0.75Z" fill="white" stroke="#CACFD8" stroke-width="1.5"/>
<path d="M23 1V9C23 11.2091 24.7909 13 27 13H35" stroke="#CACFD8" stroke-width="1.5"/>
<path d="M0 22C0 19.7909 1.79086 18 4 18H24C26.2091 18 28 19.7909 28 22V30C28 32.2091 26.2091 34 24 34H4C1.79086 34 0 32.2091 0 30V22Z" fill="#FB3748"/>
<path d="M6.94531 22H8.38281V27.625C8.38021 28.1406 8.27083 28.5846 8.05469 28.957C7.83854 29.3268 7.53646 29.612 7.14844 29.8125C6.76302 30.0104 6.3138 30.1094 5.80078 30.1094C5.33203 30.1094 4.91016 30.026 4.53516 29.8594C4.16276 29.6901 3.86719 29.4401 3.64844 29.1094C3.42969 28.7786 3.32031 28.3672 3.32031 27.875H4.76172C4.76432 28.0911 4.8112 28.2773 4.90234 28.4336C4.99609 28.5898 5.125 28.7096 5.28906 28.793C5.45313 28.8763 5.64193 28.918 5.85547 28.918C6.08724 28.918 6.28385 28.8698 6.44531 28.7734C6.60677 28.6745 6.72917 28.5286 6.8125 28.3359C6.89844 28.1432 6.94271 27.9062 6.94531 27.625V22ZM10.1751 30V22H13.1751C13.7897 22 14.3053 22.1146 14.722 22.3437C15.1412 22.5729 15.4576 22.888 15.6712 23.2891C15.8873 23.6875 15.9954 24.1406 15.9954 24.6484C15.9954 25.1615 15.8873 25.6172 15.6712 26.0156C15.455 26.4141 15.136 26.7279 14.7141 26.957C14.2923 27.1836 13.7727 27.2969 13.1555 27.2969H11.1673V26.1055H12.9602C13.3196 26.1055 13.6139 26.043 13.843 25.918C14.0722 25.793 14.2415 25.6211 14.3509 25.4023C14.4628 25.1836 14.5188 24.9323 14.5188 24.6484C14.5188 24.3646 14.4628 24.1146 14.3509 23.8984C14.2415 23.6823 14.0709 23.5143 13.8391 23.3945C13.61 23.2721 13.3144 23.2109 12.9524 23.2109H11.6243V30H10.1751ZM22.8336 24.5547C22.7685 24.3437 22.6786 24.1549 22.564 23.9883C22.452 23.819 22.3166 23.6745 22.1578 23.5547C22.0015 23.4349 21.8218 23.3451 21.6187 23.2852C21.4156 23.2227 21.1942 23.1914 20.9546 23.1914C20.525 23.1914 20.1421 23.2995 19.8062 23.5156C19.4703 23.7318 19.206 24.0495 19.0132 24.4687C18.8231 24.8854 18.7281 25.3932 18.7281 25.9922C18.7281 26.5964 18.8231 27.1081 19.0132 27.5273C19.2033 27.9466 19.4677 28.2656 19.8062 28.4844C20.1448 28.7005 20.538 28.8086 20.9859 28.8086C21.3921 28.8086 21.7437 28.7305 22.0406 28.5742C22.3401 28.418 22.5705 28.1966 22.732 27.9102C22.8935 27.6211 22.9742 27.2826 22.9742 26.8945L23.3023 26.9453H21.1304V25.8125H24.3765V26.7734C24.3765 27.4583 24.2307 28.0508 23.939 28.5508C23.6474 29.0508 23.2463 29.4362 22.7359 29.707C22.2255 29.9753 21.6395 30.1094 20.9781 30.1094C20.2411 30.1094 19.594 29.944 19.0367 29.6133C18.482 29.2799 18.0484 28.8073 17.7359 28.1953C17.426 27.5807 17.2711 26.8516 17.2711 26.0078C17.2711 25.362 17.3622 24.7852 17.5445 24.2773C17.7294 23.7695 17.9872 23.3385 18.3179 22.9844C18.6487 22.6276 19.0367 22.3568 19.482 22.1719C19.9273 21.9844 20.4117 21.8906 20.9351 21.8906C21.3778 21.8906 21.7906 21.9557 22.1734 22.0859C22.5562 22.2135 22.8961 22.3958 23.1929 22.6328C23.4924 22.8698 23.7385 23.151 23.9312 23.4766C24.1239 23.8021 24.2502 24.1615 24.3101 24.5547H22.8336Z" fill="white"/>
</svg>
